<?xml version="1.0" encoding="utf-8"?>
<!-- Generator: Adobe Illustrator 25.2.1, SVG Export Plug-In . SVG Version: 6.00 Build 0)  -->
<svg version="1.1" xmlns="http://www.w3.org/2000/svg" xmlns:xlink="http://www.w3.org/1999/xlink" x="0px" y="0px"
	 viewBox="0 0 200 200" style="enable-background:new 0 0 200 200;" xml:space="preserve">
<style type="text/css">
	.st0{fill:#89D0C2;}
	.st1{fill:none;stroke:#89D0C2;stroke-width:4;stroke-miterlimit:10;}
</style>
<g id="Layer_1">
	<g>
		<g>
		</g>
	</g>
	<g>
		<g>
			<path class="st0" d="M-141.31,121.68v-1.78c6.98-0.62,7.26-1.07,7.22-8.09l0.1-27.96c-7.05,12.31-18.38,31.71-21.53,37.83h-2.08
				c-2.93-6.06-12.28-23.93-19.38-37.15c-1.37,23.7-1.42,28.68-1.42,30.39c0.08,3.76,2.03,4.46,8.14,4.98v1.78h-20.41v-1.78
				c5.21-0.44,7.13-1.32,7.78-5.02c0.47-2.82,0.62-5.71,2.75-30.29c0.3-3.33-0.45-4.7-8.09-5.27v-1.78h15.37l18.98,33.95
				l20.24-33.95h15.32v1.78c-7.41,0.7-8.27,1.31-8.13,6.44l0.36,26.05c0.27,7.04,0.62,7.4,8.08,8.09v1.78H-141.31z"/>
			<path class="st0" d="M-63.45,121.68v-1.78c6.99-0.62,7.26-1.07,7.22-8.09l0.1-27.96c-7.05,12.31-18.38,31.71-21.53,37.83h-2.08
				c-2.93-6.06-12.28-23.93-19.38-37.15c-1.37,23.7-1.42,28.68-1.42,30.39c0.08,3.76,2.03,4.46,8.14,4.98v1.78h-20.41v-1.78
				c5.21-0.44,7.13-1.32,7.78-5.02c0.47-2.82,0.62-5.71,2.75-30.29c0.3-3.33-0.45-4.7-8.09-5.27v-1.78h15.37l18.98,33.95
				l20.24-33.95h15.32v1.78c-7.41,0.7-8.27,1.31-8.13,6.44l0.36,26.05c0.26,7.04,0.62,7.4,8.08,8.09v1.78H-63.45z"/>
		</g>
	</g>
	<polygon class="st1" points="-25,145 -115,190 -205,145 -205,55 -115,10 -25,55 	"/>
</g>
<g id="Layer_2">
	<path class="st1" d="M177,80H23c-1.66,0-3-1.34-3-3v-9c0-1.66,1.34-3,3-3h154c1.66,0,3,1.34,3,3v9C180,78.66,178.66,80,177,80z"/>
	<path class="st1" d="M177,135H23c-1.66,0-3-1.34-3-3v-9c0-1.66,1.34-3,3-3h154c1.66,0,3,1.34,3,3v9C180,133.66,178.66,135,177,135z
		"/>
	<path class="st1" d="M187,190H13c-1.66,0-3-1.34-3-3v-9c0-1.66,1.34-3,3-3h174c1.66,0,3,1.34,3,3v9C190,188.66,188.66,190,187,190z
		"/>
	<path class="st1" d="M187,25H13c-1.66,0-3-1.34-3-3v-9c0-1.66,1.34-3,3-3h174c1.66,0,3,1.34,3,3v9C190,23.66,188.66,25,187,25z"/>
</g>
</svg>
