<?xml version="1.0" encoding="UTF-8" standalone="no"?>
<!DOCTYPE svg PUBLIC "-//W3C//DTD SVG 1.1//EN" "http://www.w3.org/Graphics/SVG/1.1/DTD/svg11.dtd">
<svg version="1.1" xmlns="http://www.w3.org/2000/svg" xmlns:xlink="http://www.w3.org/1999/xlink" preserveAspectRatio="xMidYMid meet" viewBox="0 0 100 100" width="100" height="100"><defs><path d="M91.68 5C93.52 5 95 6.48 95 8.31C95 9.65 95 10.34 95 11.68C95 13.51 93.52 14.99 91.68 14.99C74.35 14.99 25.65 14.99 8.32 14.99C6.48 14.99 5 13.51 5 11.68C5 10.34 5 9.65 5 8.31C5 6.48 6.48 5 8.32 5C25.65 5 74.35 5 91.68 5Z" id="b2LY3NRpqk"></path><path d="M91.68 31.66C93.52 31.66 95 33.14 95 34.98C95 36.31 95 37.01 95 38.34C95 40.18 93.52 41.66 91.68 41.66C74.35 41.66 25.65 41.66 8.32 41.66C6.48 41.66 5 40.18 5 38.34C5 37.01 5 36.31 5 34.98C5 33.14 6.48 31.66 8.32 31.66C25.65 31.66 74.35 31.66 91.68 31.66Z" id="b2WY5fQLc"></path><path d="M91.68 58.32C93.52 58.32 95 59.8 95 61.64C95 62.97 95 63.67 95 65C95 66.84 93.52 68.32 91.68 68.32C74.35 68.32 25.65 68.32 8.32 68.32C6.48 68.32 5 66.84 5 65C5 63.67 5 62.97 5 61.64C5 59.8 6.48 58.32 8.32 58.32C25.65 58.32 74.35 58.32 91.68 58.32Z" id="b3ECyESLS2"></path><path d="M91.68 85C93.52 85 95 86.48 95 88.32C95 89.65 95 90.35 95 91.68C95 93.52 93.52 95 91.68 95C74.35 95 25.65 95 8.32 95C6.48 95 5 93.52 5 91.68C5 90.35 5 89.65 5 88.32C5 86.48 6.48 85 8.32 85C25.65 85 74.35 85 91.68 85Z" id="ahCEAMMTs"></path></defs><g><g><g><use xlink:href="#b2LY3NRpqk" opacity="1" fill="#34fcdb" fill-opacity="1"></use></g><g><use xlink:href="#b2WY5fQLc" opacity="1" fill="#34fcdb" fill-opacity="1"></use></g><g><use xlink:href="#b3ECyESLS2" opacity="1" fill="#34fcdb" fill-opacity="1"></use></g><g><use xlink:href="#ahCEAMMTs" opacity="1" fill="#34fcdb" fill-opacity="1"></use></g></g></g></svg>